<?xml version="1.0" encoding="UTF-8"?>
<svg width="800" height="450" viewBox="0 0 800 450" fill="none" xmlns="http://www.w3.org/2000/svg">
  <rect width="800" height="450" fill="#E9ECEF"/>
  <g transform="translate(250, 130)">
    <!-- Car silhouette -->
    <path d="M295.5,81.5 L280.5,33.5 C275.5,13.5 261.5,11.5 250.5,11.5 L59.5,11.5 C42.5,11.5 38.5,19.5 33.5,33.5 L14.5,81.5 L3.5,96.5 C-0.5,103.5 -0.5,104.5 5.5,108.5 L14.5,115.5 L14.5,165.5 C14.5,173.5 16.5,175.5 24.5,175.5 L45,175.5 C53,175.5 55,173.5 55,165.5 L55,140.5 L255,140.5 L255,165.5 C255,173.5 257,175.5 265,175.5 L285.5,175.5 C293.5,175.5 295.5,173.5 295.5,165.5 L295.5,115.5 L304.5,108.5 C310.5,104.5 310.5,103.5 306.5,96.5 L295.5,81.5 Z" fill="#95A5A6"/>
    <!-- Car details -->
    <rect x="35" y="45" width="240" height="35" rx="5" fill="#7F8C8D"/>
    <circle cx="60" cy="115" r="20" fill="#34495E"/>
    <circle cx="60" cy="115" r="10" fill="#2C3E50"/>
    <circle cx="250" cy="115" r="20" fill="#34495E"/>
    <circle cx="250" cy="115" r="10" fill="#2C3E50"/>
    <!-- Car window -->
    <path d="M75,45 L235,45 L225,20 L85,20 L75,45 Z" fill="#3498DB"/>
    <!-- Text -->
    <text x="155" y="220" text-anchor="middle" font-family="Arial, sans-serif" font-size="24" fill="#34495E">Immagine non disponibile</text>
  </g>
</svg>